<?xml version="1.0" encoding="utf-8"?>
<!-- Generator: Adobe Illustrator 25.2.1, SVG Export Plug-In . SVG Version: 6.00 Build 0)  -->
<svg version="1.1" id="Layer_1" xmlns="http://www.w3.org/2000/svg" xmlns:xlink="http://www.w3.org/1999/xlink" x="0px" y="0px"
	 viewBox="0 0 295 295" style="enable-background:new 0 0 295 295;" xml:space="preserve">
<style type="text/css">
	.st0{fill:#B08530;}
	.st1{fill:#D4A843;}
	.st2{fill:#9A7825;}
	.st3{fill:#E8C86C;}
	.st4{fill:#C49838;}
	.st5{fill:#7A3F14;}
	.st6{fill:#8B4518;}
	.st7{fill:#5C2E0E;}
</style>
<g>
	<g>
		<path class="st0" d="M291.7,295H3.3c-1.8,0-3.3-1.5-3.3-3.3V3.3C0,1.5,1.5,0,3.3,0h288.5c1.8,0,3.3,1.5,3.3,3.3v288.5
			C295,293.5,293.5,295,291.7,295z"/>
	</g>
	<g>
		<path class="st1" d="M6.3,286.9V8.1c0-1,0.8-1.8,1.8-1.8h278.8c1,0,1.8,0.8,1.8,1.8v278.8c0,1-0.8,1.8-1.8,1.8H8.1
			C7.1,288.7,6.3,287.9,6.3,286.9z"/>
	</g>
	<g>
		<g>
			<polygon class="st2" points="86.6,33.7 86.6,84.2 36,84.2 			"/>
		</g>
		<polygon class="st3" points="86.6,33.7 36,84.2 36,33.7 		"/>
	</g>
	<g>
		<g>
			<polygon class="st2" points="145.5,33.7 145.5,84.2 95,84.2 			"/>
		</g>
		<polygon class="st3" points="145.5,33.7 95,84.2 95,33.7 		"/>
	</g>
	<g>
		<g>
			<polygon class="st2" points="204.5,33.7 204.5,84.2 153.9,84.2 			"/>
		</g>
		<polygon class="st3" points="204.5,33.7 153.9,84.2 153.9,33.7 		"/>
	</g>
	<g>
		<g>
			<polygon class="st2" points="263.4,33.7 263.4,84.2 212.9,84.2 			"/>
		</g>
		<polygon class="st3" points="263.4,33.7 212.9,84.2 212.9,33.7 		"/>
	</g>
	<g>
		<g>
			<polygon class="st2" points="86.6,92.7 86.6,143.3 36,143.3 			"/>
		</g>
		<polygon class="st3" points="86.6,92.7 36,143.3 36,92.7 		"/>
	</g>
	<g>
		<g>
			<polygon class="st2" points="145.5,92.7 145.5,143.3 95,143.3 			"/>
		</g>
		<polygon class="st3" points="145.5,92.7 95,143.3 95,92.7 		"/>
	</g>
	<g>
		<g>
			<polygon class="st2" points="204.5,92.7 204.5,143.3 153.9,143.3 			"/>
		</g>
		<polygon class="st3" points="204.5,92.7 153.9,143.3 153.9,92.7 		"/>
	</g>
	<g>
		<g>
			<polygon class="st2" points="263.4,92.7 263.4,143.3 212.9,143.3 			"/>
		</g>
		<polygon class="st3" points="263.4,92.7 212.9,143.3 212.9,92.7 		"/>
	</g>
	<g>
		<g>
			<polygon class="st2" points="86.6,151.7 86.6,202.3 36,202.3 			"/>
		</g>
		<polygon class="st3" points="86.6,151.7 36,202.3 36,151.7 		"/>
	</g>
	<g>
		<g>
			<polygon class="st2" points="145.5,151.7 145.5,202.3 95,202.3 			"/>
		</g>
		<polygon class="st3" points="145.5,151.7 95,202.3 95,151.7 		"/>
	</g>
	<g>
		<g>
			<polygon class="st2" points="204.5,151.7 204.5,202.3 153.9,202.3 			"/>
		</g>
		<polygon class="st3" points="204.5,151.7 153.9,202.3 153.9,151.7 		"/>
	</g>
	<g>
		<g>
			<polygon class="st2" points="263.4,151.7 263.4,202.3 212.9,202.3 			"/>
		</g>
		<polygon class="st3" points="263.4,151.7 212.9,202.3 212.9,151.7 		"/>
	</g>
	<g>
		<g>
			<polygon class="st2" points="86.6,210.7 86.6,261.3 36,261.3 			"/>
		</g>
		<polygon class="st3" points="86.6,210.7 36,261.3 36,210.7 		"/>
	</g>
	<g>
		<g>
			<polygon class="st2" points="145.5,210.7 145.5,261.3 95,261.3 			"/>
		</g>
		<polygon class="st3" points="145.5,210.7 95,261.3 95,210.7 		"/>
	</g>
	<g>
		<g>
			<polygon class="st2" points="204.5,210.7 204.5,261.3 153.9,261.3 			"/>
		</g>
		<polygon class="st3" points="204.5,210.7 153.9,261.3 153.9,210.7 		"/>
	</g>
	<g>
		<g>
			<polygon class="st2" points="263.4,210.7 263.4,261.3 212.9,261.3 			"/>
		</g>
		<polygon class="st3" points="263.4,210.7 212.9,261.3 212.9,210.7 		"/>
	</g>
	<g>
		<path class="st3" d="M14.8,48.3h-4.2c0-20.8,16.9-37.8,37.8-37.8h202.9v4.2H48.3C29.8,14.8,14.8,29.8,14.8,48.3z"/>
	</g>
	<g>
		<rect x="40.2" y="37.9" class="st4" width="42.1" height="25.4"/>
	</g>
	<g>
		<rect x="40.2" y="63.3" class="st5" width="42.1" height="16.8"/>
	</g>
	<g>
		<rect x="44.4" y="67.5" class="st6" width="29.5" height="4.2"/>
	</g>
	<g>
		<rect x="99.2" y="37.9" class="st4" width="42.1" height="29.6"/>
	</g>
	<g>
		<rect x="99.2" y="67.5" class="st5" width="42.1" height="12.6"/>
	</g>
	<g>
		<rect x="158.1" y="37.9" class="st4" width="42.1" height="25.4"/>
	</g>
	<g>
		<rect x="158.1" y="63.3" class="st5" width="42.1" height="16.8"/>
	</g>
	<g>
		<rect x="162.4" y="67.5" class="st6" width="29.5" height="4.2"/>
	</g>
	<g>
		<rect x="217.1" y="37.9" class="st4" width="42.1" height="29.6"/>
	</g>
	<g>
		<rect x="217.1" y="67.5" class="st5" width="42.1" height="12.6"/>
	</g>
	<g>
		<rect x="40.2" y="96.9" class="st4" width="42.1" height="21.1"/>
	</g>
	<g>
		<rect x="99.2" y="96.9" class="st4" width="42.1" height="25.3"/>
	</g>
	<g>
		<rect x="158.1" y="96.9" class="st4" width="42.1" height="21.1"/>
	</g>
	<g>
		<rect x="217.1" y="96.9" class="st4" width="42.1" height="21.1"/>
	</g>
	<g>
		<rect x="40.2" y="118" class="st5" width="42.1" height="21"/>
	</g>
	<g>
		<rect x="99.2" y="122.3" class="st5" width="42.1" height="16.8"/>
	</g>
	<g>
		<rect x="158.1" y="118" class="st5" width="42.1" height="21"/>
	</g>
	<g>
		<rect x="217.1" y="118" class="st5" width="42.1" height="21"/>
	</g>
	<g>
		<rect x="44.4" y="122.2" class="st6" width="29.5" height="4.2"/>
	</g>
	<g>
		<rect x="162.4" y="122.2" class="st6" width="29.5" height="4.2"/>
	</g>
	<g>
		<rect x="103.4" y="126.5" class="st6" width="29.5" height="4.2"/>
	</g>
	<g>
		<rect x="221.4" y="122.2" class="st6" width="29.5" height="4.2"/>
	</g>
	<g>
		<rect x="40.2" y="155.9" class="st4" width="42.1" height="12.7"/>
	</g>
	<g>
		<rect x="99.2" y="155.9" class="st4" width="42.1" height="4.3"/>
	</g>
	<g>
		<rect x="158.1" y="155.9" class="st4" width="42.1" height="21.1"/>
	</g>
	<g>
		<rect x="217.1" y="155.9" class="st4" width="42.1" height="8.5"/>
	</g>
	<g>
		<rect x="40.2" y="168.6" class="st7" width="42.1" height="29.5"/>
	</g>
	<g>
		<rect x="99.2" y="160.2" class="st7" width="42.1" height="37.9"/>
	</g>
	<g>
		<rect x="217.1" y="164.4" class="st7" width="42.1" height="33.7"/>
	</g>
	<g>
		<rect x="158.1" y="177" class="st5" width="42.1" height="21"/>
	</g>
	<g>
		<rect x="44.4" y="172.8" class="st6" width="29.5" height="4.2"/>
	</g>
	<g>
		<rect x="103.4" y="164.4" class="st6" width="29.5" height="4.2"/>
	</g>
	<g>
		<rect x="221.4" y="168.6" class="st6" width="29.5" height="4.2"/>
	</g>
	<g>
		<rect x="162.4" y="181.3" class="st6" width="29.5" height="4.2"/>
	</g>
	<g>
		
			<rect x="40.2" y="215" transform="matrix(-1.836970e-16 1 -1 -1.836970e-16 297.3369 174.7297)" class="st7" width="42.1" height="42.1"/>
	</g>
	<g>
		
			<rect x="99.2" y="215" transform="matrix(-1.836970e-16 1 -1 -1.836970e-16 356.2854 115.7812)" class="st7" width="42.1" height="42.1"/>
	</g>
	<g>
		
			<rect x="158.1" y="215" transform="matrix(-1.836970e-16 1 -1 -1.836970e-16 415.237 56.8295)" class="st7" width="42.1" height="42.1"/>
	</g>
	<g>
		<rect x="217.1" y="223.4" class="st7" width="42.1" height="33.7"/>
	</g>
	<g>
		<rect x="217.1" y="215" class="st4" width="42.1" height="8.4"/>
	</g>
	<g>
		<rect x="44.4" y="219.2" class="st6" width="29.5" height="4.2"/>
	</g>
	<g>
		<rect x="162.4" y="219.2" class="st6" width="29.5" height="4.2"/>
	</g>
	<g>
		<rect x="103.4" y="219.2" class="st6" width="29.5" height="4.2"/>
	</g>
	<g>
		<rect x="221.4" y="227.6" class="st6" width="29.5" height="4.2"/>
	</g>
</g>
</svg>
